<svg width="108" height="106" viewBox="0 0 108 106" fill="none" xmlns="http://www.w3.org/2000/svg">
<g clip-path="url(#clip0_7_988)">
<path d="M80 34.5C80 52.5 69 59.5 62 59.5C57 59.5 55 57.5 54 57.5C53 57.5 51 59.5 46 59.5C39 59.5 28 52.5 28 34.5C28 18.5 37 14.5 46 14.5H46.01C48.7311 14.4438 51.4393 14.8879 54 15.81H54.01C56.5707 14.8879 59.2789 14.4438 62 14.5C71 14.5 80 18.5 80 34.5Z" fill="#F44335"/>
<path d="M62 14.5C61.483 14.5 60.99 14.517 60.508 14.541C68.978 14.987 77 19.4 77 34.5C77 51.4 67.309 58.6 60.33 59.419C60.847 59.47 61.4 59.5 62 59.5C69 59.5 80 52.5 80 34.5C80 18.5 71 14.5 62 14.5Z" fill="#C81E1E"/>
<path d="M57.05 17.4199C56.1048 16.7635 55.0841 16.223 54.01 15.8099L57.05 17.4199Z" fill="#F44335"/>
<path d="M54 10.88V15.81C51.4393 14.8878 48.7311 14.4438 46.01 14.5H46C44.7758 14.0538 43.661 13.3515 42.73 12.44C38.99 8.61996 40.24 1.57996 40.24 1.57996C40.24 1.57996 47.56 0.739961 51.31 4.55996C52.8618 6.32325 53.805 8.53916 54 10.88Z" fill="#60A917"/>
<path d="M51.31 4.5599C47.968 1.1599 41.81 1.4519 40.5 1.5599C42.934 1.7349 46.191 2.4049 48.31 4.5599C49.8618 6.32319 50.805 8.5391 51 10.8799V14.9629C52.0221 15.1601 53.0257 15.4434 54 15.8099V10.8799C53.805 8.5391 52.8618 6.32319 51.31 4.5599Z" fill="#549414"/>
<path d="M32.233 31.5C32.1909 31.5003 32.1488 31.4977 32.107 31.492C31.8437 31.4591 31.6044 31.3228 31.4416 31.1133C31.2788 30.9038 31.2059 30.6382 31.239 30.375C32.327 21.711 37.155 17.5 46 17.5C46.5523 17.5 47 17.9477 47 18.5C47 19.0523 46.5523 19.5 46 19.5C38.236 19.5 34.176 23.035 33.224 30.625C33.1611 31.1246 32.7365 31.4994 32.233 31.5Z" fill="#F5F5F5"/>
<path d="M32 35.5C32.5523 35.5 33 35.0523 33 34.5C33 33.9477 32.5523 33.5 32 33.5C31.4477 33.5 31 33.9477 31 34.5C31 35.0523 31.4477 35.5 32 35.5Z" fill="#F5F5F5"/>
<path d="M27 34.5C27 53.441 38.654 60.5 46 60.5C48.4824 60.5403 50.9374 59.9771 53.154 58.859C53.4225 58.7213 53.6998 58.6013 53.984 58.5C54.2814 58.5938 54.5699 58.7139 54.846 58.859C57.0626 59.9771 59.5176 60.5403 62 60.5C69.346 60.5 81 53.441 81 34.5C81 17.143 70.667 13.5 62 13.5C59.6334 13.4773 57.2759 13.7955 55 14.445V9.49996C55 7.61896 55 4.11795 58.447 2.39995C58.7668 2.24026 58.977 1.9221 58.9986 1.56534C59.0202 1.20858 58.8498 0.867406 58.5516 0.670341C58.2534 0.473276 57.8728 0.450256 57.553 0.609954C55.4782 1.60908 53.9575 3.4821 53.406 5.71795C53.0245 5.04448 52.5598 4.4216 52.023 3.86395C47.978 -0.261046 40.444 0.548954 40.126 0.585954C39.6869 0.636647 39.3331 0.969666 39.256 1.40495C39.201 1.71295 37.962 9.00496 42.019 13.144C42.212 13.338 42.419 13.52 42.637 13.698C34.872 14.649 27 19.35 27 34.5ZM41.129 2.52095C43.018 2.43995 47.913 2.52695 50.595 5.25895C51.9945 6.84614 52.8387 8.84606 53 10.956V14.44C50.7951 13.8151 48.5137 13.5014 46.222 13.508C45.1847 13.115 44.2392 12.5133 43.444 11.74C40.8 9.03596 40.95 4.35495 41.129 2.52095ZM46 15.5C48.5894 15.4486 51.1667 15.8652 53.608 16.73H53.618L53.648 16.74C54.6468 17.1254 55.5959 17.629 56.475 18.24C56.767 18.4522 57.1508 18.4906 57.4791 18.3404C57.8074 18.1901 58.0292 17.8746 58.0595 17.5148C58.0897 17.155 57.9236 16.8069 57.625 16.604C57.344 16.404 57.051 16.217 56.749 16.037C58.4744 15.6664 60.2353 15.4863 62 15.5C73.28 15.5 79 21.893 79 34.5C79 51.984 68.573 58.5 62 58.5C59.813 58.5405 57.6496 58.0429 55.7 57.051C55.1798 56.7466 54.5998 56.5586 54 56.5C53.4002 56.5586 52.8202 56.7466 52.3 57.051C50.3504 58.0429 48.187 58.5405 46 58.5C39.427 58.5 29 51.984 29 34.5C29 21.893 34.72 15.5 46 15.5Z" fill="black"/>
</g>
<path d="M26.5832 100.5L32.6432 86.3H34.8432L40.6632 100.5H38.0232L36.7432 97.26H30.5432L29.2232 100.5H26.5832ZM31.4432 95.08H35.9032L33.7032 89.5L31.4432 95.08ZM41.8527 104.5V90.4H44.3127L44.2327 92.2C44.5927 91.5733 45.0594 91.0933 45.6327 90.76C46.2061 90.4133 46.8727 90.24 47.6327 90.24C48.5261 90.24 49.2794 90.4467 49.8927 90.86C50.5061 91.2733 50.9727 91.84 51.2927 92.56C51.6127 93.28 51.7727 94.1 51.7727 95.02C51.7727 96.14 51.5527 97.1267 51.1127 97.98C50.6727 98.8333 50.0661 99.5 49.2927 99.98C48.5327 100.447 47.6661 100.68 46.6927 100.68C46.1861 100.68 45.7261 100.593 45.3127 100.42C44.8994 100.247 44.5527 100.013 44.2727 99.72L44.2927 100.5V104.5H41.8527ZM46.5127 98.54C47.3527 98.54 48.0194 98.22 48.5127 97.58C49.0061 96.94 49.2527 96.1133 49.2527 95.1C49.2527 94.2467 49.0661 93.5867 48.6927 93.12C48.3194 92.64 47.8061 92.4 47.1527 92.4C46.6061 92.4 46.1194 92.5533 45.6927 92.86C45.2661 93.1533 44.9261 93.5733 44.6727 94.12C44.4194 94.6533 44.2927 95.2733 44.2927 95.98C44.2927 96.7667 44.4927 97.3933 44.8927 97.86C45.2927 98.3133 45.8327 98.54 46.5127 98.54ZM53.884 104.5V90.4H56.344L56.264 92.2C56.624 91.5733 57.0907 91.0933 57.664 90.76C58.2373 90.4133 58.904 90.24 59.664 90.24C60.5573 90.24 61.3107 90.4467 61.924 90.86C62.5373 91.2733 63.004 91.84 63.324 92.56C63.644 93.28 63.804 94.1 63.804 95.02C63.804 96.14 63.584 97.1267 63.144 97.98C62.704 98.8333 62.0973 99.5 61.324 99.98C60.564 100.447 59.6973 100.68 58.724 100.68C58.2173 100.68 57.7573 100.593 57.344 100.42C56.9307 100.247 56.584 100.013 56.304 99.72L56.324 100.5V104.5H53.884ZM58.544 98.54C59.384 98.54 60.0507 98.22 60.544 97.58C61.0373 96.94 61.284 96.1133 61.284 95.1C61.284 94.2467 61.0973 93.5867 60.724 93.12C60.3507 92.64 59.8373 92.4 59.184 92.4C58.6373 92.4 58.1507 92.5533 57.724 92.86C57.2973 93.1533 56.9573 93.5733 56.704 94.12C56.4507 94.6533 56.324 95.2733 56.324 95.98C56.324 96.7667 56.524 97.3933 56.924 97.86C57.324 98.3133 57.864 98.54 58.544 98.54ZM68.8352 100.68C67.8752 100.68 67.1486 100.42 66.6552 99.9C66.1619 99.38 65.9152 98.64 65.9152 97.68V85.7H68.3552V97.48C68.3552 98.2 68.6886 98.56 69.3552 98.56C69.6886 98.56 69.9819 98.48 70.2352 98.32L70.8352 100.1C70.6219 100.26 70.3352 100.393 69.9752 100.5C69.6152 100.62 69.2352 100.68 68.8352 100.68ZM76.4774 100.68C75.3841 100.68 74.4374 100.48 73.6374 100.08C72.8508 99.6667 72.2441 99.08 71.8174 98.32C71.3908 97.56 71.1774 96.6533 71.1774 95.6C71.1774 94.5467 71.3974 93.62 71.8374 92.82C72.2774 92.0067 72.8708 91.3733 73.6174 90.92C74.3774 90.4667 75.2374 90.24 76.1974 90.24C77.7574 90.24 78.9041 90.7733 79.6374 91.84C80.3841 92.8933 80.6441 94.3533 80.4174 96.22H73.6574C73.7108 96.9267 73.9974 97.4933 74.5174 97.92C75.0374 98.3467 75.7508 98.56 76.6574 98.56C77.0841 98.56 77.5108 98.4667 77.9374 98.28C78.3774 98.0933 78.7508 97.8067 79.0574 97.42L80.4774 98.86C80.0241 99.4333 79.4708 99.88 78.8174 100.2C78.1774 100.52 77.3974 100.68 76.4774 100.68ZM76.2374 92.08C75.5574 92.08 74.9974 92.2933 74.5574 92.72C74.1174 93.1467 73.8374 93.72 73.7174 94.44H78.3174C78.3441 93.6133 78.1641 93.0133 77.7774 92.64C77.3908 92.2667 76.8774 92.08 76.2374 92.08Z" fill="white"/>
<defs>
<clipPath id="clip0_7_988">
<rect width="60" height="60" fill="white" transform="translate(24 0.5)"/>
</clipPath>
</defs>
</svg>
