<svg width="108" height="106" viewBox="0 0 108 106" fill="none" xmlns="http://www.w3.org/2000/svg">
<g clip-path="url(#clip0_7_1002)">
<path d="M41.5 20.5C43.5711 20.5 45.25 19.3807 45.25 18C45.25 16.6193 43.5711 15.5 41.5 15.5C39.4289 15.5 37.75 16.6193 37.75 18C37.75 19.3807 39.4289 20.5 41.5 20.5Z" fill="#39285E"/>
<path d="M55.25 24.25C55.25 26.9695 54.4436 29.6279 52.9327 31.8891C51.4218 34.1503 49.2744 35.9126 46.7619 36.9533C44.2494 37.994 41.4848 38.2663 38.8175 37.7358C36.1503 37.2053 33.7003 35.8957 31.7773 33.9727C29.8543 32.0497 28.5448 29.5997 28.0142 26.9325C27.4837 24.2653 27.756 21.5006 28.7967 18.9881C29.8374 16.4756 31.5997 14.3282 33.8609 12.8173C36.1221 11.3064 38.7805 10.5 41.5 10.5C43.306 10.499 45.0944 10.854 46.7631 11.5447C48.4317 12.2353 49.9479 13.2481 51.2249 14.5251C52.5019 15.8021 53.5147 17.3183 54.2054 18.9869C54.896 20.6556 55.251 22.444 55.25 24.25ZM45.25 18C45.25 16.625 43.575 15.5 41.5 15.5C39.425 15.5 37.75 16.625 37.75 18C37.75 19.375 39.425 20.5 41.5 20.5C43.575 20.5 45.25 19.375 45.25 18Z" fill="#6F60BA"/>
<path d="M66.5 29.25C68.5711 29.25 70.25 28.1307 70.25 26.75C70.25 25.3693 68.5711 24.25 66.5 24.25C64.4289 24.25 62.75 25.3693 62.75 26.75C62.75 28.1307 64.4289 29.25 66.5 29.25Z" fill="#39285E"/>
<path d="M66.5 19.25C69.2195 19.25 71.8779 20.0564 74.1391 21.5673C76.4003 23.0782 78.1626 25.2256 79.2033 27.7381C80.244 30.2506 80.5163 33.0153 79.9858 35.6825C79.4553 38.3497 78.1457 40.7997 76.2227 42.7227C74.2997 44.6457 71.8497 45.9553 69.1825 46.4858C66.5153 47.0163 63.7506 46.744 61.2381 45.7033C58.7256 44.6626 56.5782 42.9003 55.0673 40.6391C53.5564 38.3779 52.75 35.7195 52.75 33C52.749 31.194 53.104 29.4056 53.7946 27.7369C54.4853 26.0683 55.4981 24.5521 56.7751 23.2751C58.0521 21.9981 59.5683 20.9853 61.2369 20.2947C62.9056 19.604 64.694 19.249 66.5 19.25ZM70.25 26.75C70.25 25.375 68.575 24.25 66.5 24.25C64.425 24.25 62.75 25.375 62.75 26.75C62.75 28.125 64.425 29.25 66.5 29.25C68.575 29.25 70.25 28.125 70.25 26.75Z" fill="#7E6DD4"/>
<path d="M34 49.25C35.3807 49.25 36.5 47.5711 36.5 45.5C36.5 43.4289 35.3807 41.75 34 41.75C32.6193 41.75 31.5 43.4289 31.5 45.5C31.5 47.5711 32.6193 49.25 34 49.25Z" fill="#39285E"/>
<path d="M41.5 31.75C44.2195 31.75 46.8779 32.5564 49.1391 34.0673C51.4003 35.5782 53.1626 37.7256 54.2033 40.2381C55.244 42.7506 55.5163 45.5153 54.9858 48.1825C54.4553 50.8497 53.1457 53.2997 51.2227 55.2227C49.2997 57.1457 46.8497 58.4553 44.1825 58.9858C41.5153 59.5163 38.7506 59.244 36.2381 58.2033C33.7256 57.1626 31.5782 55.4003 30.0673 53.1391C28.5564 50.8779 27.75 48.2195 27.75 45.5C27.749 43.694 28.104 41.9056 28.7947 40.2369C29.4853 38.5683 30.4981 37.0521 31.7751 35.7751C33.0521 34.4981 34.5683 33.4853 36.2369 32.7946C37.9056 32.104 39.694 31.749 41.5 31.75ZM36.5 45.5C36.5 43.425 35.375 41.75 34 41.75C32.625 41.75 31.5 43.425 31.5 45.5C31.5 47.575 32.625 49.25 34 49.25C35.375 49.25 36.5 47.575 36.5 45.5Z" fill="#7E6DD4"/>
<path d="M55.25 24.1325C55.6475 24.2125 55.875 24.25 55.875 24.25L55.9088 24.2288C56.1213 23.9713 56.3512 23.7287 56.5825 23.4875C57.4802 21.8453 57.8856 19.9791 57.75 18.1125C57.75 18.1125 57.75 4.8125 44.625 1.75C43.5697 4.57592 42.9787 7.554 42.875 10.5688C46.2475 10.9051 49.3767 12.4761 51.661 14.9799C53.9453 17.4836 55.2236 20.7434 55.25 24.1325Z" fill="#4E8C00"/>
<path d="M66.5 19.25C70.0678 19.2479 73.4955 20.6382 76.0538 23.125C76.9633 22.3274 77.6954 21.348 78.2029 20.2499C78.7103 19.1518 78.9819 17.9595 79 16.75C79 6.75 76.5 1.75 76.5 1.75C72.3105 7.22853 68.6681 13.1045 65.625 19.2938C65.915 19.2763 66.205 19.25 66.5 19.25Z" fill="#63B300"/>
<path d="M76.5 1.75C60.3175 5.2175 59.1 19.3638 59.0087 21.4763C60.9885 20.1893 63.268 19.4374 65.625 19.2938C68.668 13.1045 72.3104 7.22853 76.5 1.75Z" fill="#4E8C00"/>
<path d="M66.5 29.25C68.5711 29.25 70.25 28.1307 70.25 26.75C70.25 25.3693 68.5711 24.25 66.5 24.25C64.4289 24.25 62.75 25.3693 62.75 26.75C62.75 28.1307 64.4289 29.25 66.5 29.25Z" fill="#39285E"/>
<path d="M66.5 19.25C69.2195 19.25 71.8779 20.0564 74.1391 21.5673C76.4003 23.0782 78.1626 25.2256 79.2033 27.7381C80.244 30.2506 80.5163 33.0153 79.9858 35.6825C79.4553 38.3497 78.1457 40.7997 76.2227 42.7227C74.2997 44.6457 71.8497 45.9553 69.1825 46.4858C66.5153 47.0163 63.7506 46.744 61.2381 45.7033C58.7256 44.6626 56.5782 42.9003 55.0673 40.6391C53.5564 38.3779 52.75 35.7195 52.75 33C52.749 31.194 53.104 29.4056 53.7946 27.7369C54.4853 26.0683 55.4981 24.5521 56.7751 23.2751C58.0521 21.9981 59.5683 20.9853 61.2369 20.2947C62.9056 19.604 64.694 19.249 66.5 19.25ZM70.25 26.75C70.25 25.375 68.575 24.25 66.5 24.25C64.425 24.25 62.75 25.375 62.75 26.75C62.75 28.125 64.425 29.25 66.5 29.25C68.575 29.25 70.25 28.125 70.25 26.75Z" fill="#7E6DD4"/>
<path d="M66.5 19.25C63.7805 19.25 61.1221 20.0564 58.8609 21.5673C56.5997 23.0782 54.8374 25.2256 53.7967 27.7381C52.756 30.2506 52.4837 33.0153 53.0142 35.6825C53.5448 38.3497 54.8543 40.7997 56.7773 42.7227C58.7003 44.6457 61.1503 45.9553 63.8175 46.4858C66.4848 47.0163 69.2494 46.744 71.7619 45.7033C74.2744 44.6626 76.4218 42.9003 77.9327 40.6391C79.4436 38.3779 80.25 35.7195 80.25 33C80.251 31.194 79.896 29.4056 79.2054 27.7369C78.5147 26.0683 77.5019 24.5521 76.2249 23.2751C74.9479 21.9981 73.4317 20.9853 71.7631 20.2947C70.0944 19.604 68.306 19.249 66.5 19.25ZM66.5 40.5C59.5913 40.5 54 36.0275 54 30.5C54 24.9725 59.5913 20.5 66.5 20.5C73.4088 20.5 79 24.9725 79 30.5C79 36.0275 73.4088 40.5 66.5 40.5Z" fill="#5F4A9E"/>
<path d="M66.5 31.75C71.3325 31.75 75.25 29.2316 75.25 26.125C75.25 23.0184 71.3325 20.5 66.5 20.5C61.6675 20.5 57.75 23.0184 57.75 26.125C57.75 29.2316 61.6675 31.75 66.5 31.75Z" fill="#9883FF"/>
<path d="M66.5 30.5C69.2614 30.5 71.5 28.8211 71.5 26.75C71.5 24.6789 69.2614 23 66.5 23C63.7386 23 61.5 24.6789 61.5 26.75C61.5 28.8211 63.7386 30.5 66.5 30.5Z" fill="#5F4A9E"/>
<path d="M66.5 29.25C68.5711 29.25 70.25 28.1307 70.25 26.75C70.25 25.3693 68.5711 24.25 66.5 24.25C64.4289 24.25 62.75 25.3693 62.75 26.75C62.75 28.1307 64.4289 29.25 66.5 29.25Z" fill="#39285E"/>
<path d="M66.5 25.5C67.2189 25.4345 67.9415 25.5762 68.5824 25.9085C69.2233 26.2408 69.7555 26.7497 70.1163 27.375C70.1997 27.1769 70.2451 26.9649 70.25 26.75C70.25 25.375 68.575 24.25 66.5 24.25C64.425 24.25 62.75 25.375 62.75 26.75C62.7549 26.9649 62.8003 27.1769 62.8838 27.375C63.2445 26.7497 63.7767 26.2408 64.4176 25.9085C65.0585 25.5762 65.7811 25.4345 66.5 25.5Z" fill="#261647"/>
<path d="M75.9075 28.0062C75.8175 28.0193 75.7299 28.0454 75.6475 28.0837C74.9525 28.3962 74.5425 29.3337 74.0475 29.8825C72.6896 31.3842 70.9141 32.4463 68.9487 32.9325C68.732 32.9501 68.5213 33.0124 68.3298 33.1154C68.1384 33.2184 67.9703 33.36 67.8362 33.5312C67.7534 33.729 67.7375 33.9484 67.791 34.156C67.8444 34.3637 67.9644 34.5481 68.1325 34.6812C68.4742 34.9358 68.8736 35.1019 69.295 35.165C70.8654 35.6032 72.5253 35.6067 74.0975 35.175C74.8505 34.908 75.5408 34.4897 76.126 33.9458C76.7112 33.4019 77.1788 32.744 77.5 32.0125C77.7007 31.5437 77.7757 31.0307 77.7176 30.5241C77.6595 30.0176 77.4703 29.5349 77.1687 29.1237C76.855 28.6062 76.5075 27.9262 75.9075 28.0062Z" fill="#9883FF"/>
<path d="M41.5 20.5C43.5711 20.5 45.25 19.3807 45.25 18C45.25 16.6193 43.5711 15.5 41.5 15.5C39.4289 15.5 37.75 16.6193 37.75 18C37.75 19.3807 39.4289 20.5 41.5 20.5Z" fill="#39285E"/>
<path d="M55.25 24.25C55.25 26.9695 54.4436 29.6279 52.9327 31.8891C51.4218 34.1503 49.2744 35.9126 46.7619 36.9533C44.2494 37.994 41.4848 38.2663 38.8175 37.7358C36.1503 37.2053 33.7003 35.8957 31.7773 33.9727C29.8543 32.0497 28.5448 29.5997 28.0142 26.9325C27.4837 24.2653 27.756 21.5006 28.7967 18.9881C29.8374 16.4756 31.5997 14.3282 33.8609 12.8173C36.1221 11.3064 38.7805 10.5 41.5 10.5C43.306 10.499 45.0944 10.854 46.7631 11.5447C48.4317 12.2353 49.9479 13.2481 51.2249 14.5251C52.5019 15.8021 53.5147 17.3183 54.2054 18.9869C54.896 20.6556 55.251 22.444 55.25 24.25ZM45.25 18C45.25 16.625 43.575 15.5 41.5 15.5C39.425 15.5 37.75 16.625 37.75 18C37.75 19.375 39.425 20.5 41.5 20.5C43.575 20.5 45.25 19.375 45.25 18Z" fill="#6F60BA"/>
<path d="M41.5 10.5C38.7805 10.5 36.1221 11.3064 33.8609 12.8173C31.5997 14.3282 29.8374 16.4756 28.7967 18.9881C27.756 21.5006 27.4837 24.2653 28.0142 26.9325C28.5448 29.5997 29.8543 32.0497 31.7773 33.9727C33.7003 35.8957 36.1503 37.2053 38.8175 37.7358C41.4848 38.2663 44.2494 37.994 46.7619 36.9533C49.2744 35.9126 51.4218 34.1503 52.9327 31.8891C54.4436 29.6279 55.25 26.9695 55.25 24.25C55.251 22.444 54.896 20.6556 54.2054 18.9869C53.5147 17.3183 52.5019 15.8021 51.2249 14.5251C49.9479 13.2481 48.4317 12.2353 46.7631 11.5447C45.0944 10.854 43.306 10.499 41.5 10.5ZM41.5 31.75C34.5913 31.75 29 27.2775 29 21.75C29 16.2225 34.5913 11.75 41.5 11.75C48.4088 11.75 54 16.2225 54 21.75C54 27.2775 48.4088 31.75 41.5 31.75Z" fill="#483584"/>
<path d="M41.5 23C46.3325 23 50.25 20.4816 50.25 17.375C50.25 14.2684 46.3325 11.75 41.5 11.75C36.6675 11.75 32.75 14.2684 32.75 17.375C32.75 20.4816 36.6675 23 41.5 23Z" fill="#9883FF"/>
<path d="M41.5 21.75C44.2614 21.75 46.5 20.0711 46.5 18C46.5 15.9289 44.2614 14.25 41.5 14.25C38.7386 14.25 36.5 15.9289 36.5 18C36.5 20.0711 38.7386 21.75 41.5 21.75Z" fill="#5F4A9E"/>
<path d="M41.5 20.5C43.5711 20.5 45.25 19.3807 45.25 18C45.25 16.6193 43.5711 15.5 41.5 15.5C39.4289 15.5 37.75 16.6193 37.75 18C37.75 19.3807 39.4289 20.5 41.5 20.5Z" fill="#39285E"/>
<path d="M41.5 16.75C42.2189 16.6845 42.9415 16.8262 43.5824 17.1585C44.2233 17.4908 44.7555 17.9997 45.1162 18.625C45.1997 18.4269 45.2451 18.2149 45.25 18C45.25 16.625 43.575 15.5 41.5 15.5C39.425 15.5 37.75 16.625 37.75 18C37.7549 18.2149 37.8003 18.4269 37.8838 18.625C38.2445 17.9997 38.7767 17.4908 39.4176 17.1585C40.0585 16.8262 40.7811 16.6845 41.5 16.75Z" fill="#261647"/>
<path d="M50.9075 19.2562C50.8175 19.2693 50.7299 19.2954 50.6475 19.3337C49.9525 19.6462 49.5425 20.5837 49.0475 21.1325C47.6896 22.6342 45.9141 23.6963 43.9487 24.1825C43.732 24.2001 43.5213 24.2624 43.3298 24.3654C43.1384 24.4684 42.9703 24.61 42.8362 24.7812C42.7534 24.979 42.7375 25.1984 42.791 25.406C42.8444 25.6137 42.9644 25.7981 43.1325 25.9312C43.4742 26.1858 43.8735 26.3519 44.295 26.415C45.8654 26.8532 47.5253 26.8567 49.0975 26.425C49.8505 26.158 50.5408 25.7397 51.126 25.1958C51.7112 24.6519 52.1788 23.994 52.5 23.2625C52.7007 22.7937 52.7757 22.2807 52.7176 21.7741C52.6595 21.2676 52.4703 20.7849 52.1687 20.3737C51.855 19.8562 51.5075 19.1762 50.9075 19.2562Z" fill="#7E6DD4"/>
<path d="M32.7687 34.875C35.2271 32.8496 38.3147 31.7445 41.5 31.75C39.0253 31.7674 36.5862 31.1598 34.4087 29.9838C33.0733 30.7829 31.8831 31.8028 30.8887 33C31.454 33.6837 32.0836 34.3116 32.7687 34.875Z" fill="#39285E"/>
<path d="M53.9838 21.4912C53.5472 21.7739 53.1269 22.0811 52.725 22.4112C52.6975 22.7049 52.6233 22.9923 52.505 23.2625C51.9143 24.5765 50.8613 25.6277 49.5463 26.2162C48.9246 27.3133 48.4577 28.4911 48.1588 29.7162C46.0468 28.5449 43.6629 27.9524 41.2483 27.9987C38.8337 28.0451 36.4742 28.7285 34.4088 29.98C36.4975 31.0888 38.8171 31.6924 41.1814 31.7424C43.5457 31.7923 45.8888 31.2871 48.0225 30.2675C48.2138 30.1737 48.4075 30.0812 48.5913 29.98C50.1511 29.2233 51.4773 28.0589 52.4295 26.6101C53.3816 25.1613 53.9243 23.482 54 21.75C54 21.6625 53.9863 21.5775 53.9838 21.4912Z" fill="#483584"/>
<path d="M54.8413 20.97C54.5475 21.1325 54.2625 21.3087 53.9837 21.4912C53.9837 21.5775 54 21.6625 54 21.75C53.925 23.4826 53.3826 25.1628 52.4304 26.6123C51.4782 28.0618 50.1516 29.2268 48.5913 29.9837C48.4075 30.085 48.2163 30.1775 48.0225 30.2712C45.9895 31.255 43.7585 31.7608 41.5 31.75C44.6821 31.7626 47.7638 32.8656 50.2313 34.875C50.9147 34.3113 51.5425 33.6834 52.1063 33C52.3488 32.7062 52.5738 32.3975 52.7913 32.0837C52.9494 29.6018 53.7818 27.2101 55.1987 25.1662C55.2188 24.8625 55.245 24.5587 55.245 24.25C55.2425 23.1444 55.1069 22.0431 54.8413 20.97Z" fill="#39285E"/>
<path d="M52.5 23.2625C52.6183 22.9923 52.6925 22.7049 52.72 22.4113C51.4393 23.4772 50.3623 24.7663 49.5413 26.2163C50.8563 25.6278 51.9093 24.5766 52.5 23.2625Z" fill="#5F4A9E"/>
<path d="M34 49.25C35.3807 49.25 36.5 47.5711 36.5 45.5C36.5 43.4289 35.3807 41.75 34 41.75C32.6193 41.75 31.5 43.4289 31.5 45.5C31.5 47.5711 32.6193 49.25 34 49.25Z" fill="#39285E"/>
<path d="M41.5 31.75C44.2195 31.75 46.8779 32.5564 49.1391 34.0673C51.4003 35.5782 53.1626 37.7256 54.2033 40.2381C55.244 42.7506 55.5163 45.5153 54.9858 48.1825C54.4553 50.8497 53.1457 53.2997 51.2227 55.2227C49.2997 57.1457 46.8497 58.4553 44.1825 58.9858C41.5153 59.5163 38.7506 59.244 36.2381 58.2033C33.7256 57.1626 31.5782 55.4003 30.0673 53.1391C28.5564 50.8779 27.75 48.2195 27.75 45.5C27.749 43.694 28.104 41.9056 28.7947 40.2369C29.4853 38.5683 30.4981 37.0521 31.7751 35.7751C33.0521 34.4981 34.5683 33.4853 36.2369 32.7946C37.9056 32.104 39.694 31.749 41.5 31.75ZM36.5 45.5C36.5 43.425 35.375 41.75 34 41.75C32.625 41.75 31.5 43.425 31.5 45.5C31.5 47.575 32.625 49.25 34 49.25C35.375 49.25 36.5 47.575 36.5 45.5Z" fill="#7E6DD4"/>
<path d="M27.75 45.5C27.75 48.2195 28.5564 50.8779 30.0673 53.1391C31.5782 55.4003 33.7256 57.1626 36.2381 58.2033C38.7506 59.244 41.5153 59.5163 44.1825 58.9858C46.8497 58.4553 49.2997 57.1457 51.2227 55.2227C53.1457 53.2997 54.4553 50.8497 54.9858 48.1825C55.5163 45.5153 55.244 42.7506 54.2033 40.2381C53.1626 37.7256 51.4003 35.5782 49.1391 34.0673C46.8779 32.5564 44.2195 31.75 41.5 31.75C39.694 31.749 37.9056 32.104 36.2369 32.7946C34.5683 33.4853 33.0521 34.4981 31.7751 35.7751C30.4981 37.0521 29.4853 38.5683 28.7947 40.2369C28.104 41.9056 27.749 43.694 27.75 45.5ZM49 45.5C49 52.4088 44.5275 58 39 58C33.4725 58 29 52.4088 29 45.5C29 38.5913 33.4725 33 39 33C44.5275 33 49 38.5913 49 45.5Z" fill="#5F4A9E"/>
<path d="M34.625 54.25C37.7316 54.25 40.25 50.3325 40.25 45.5C40.25 40.6675 37.7316 36.75 34.625 36.75C31.5184 36.75 29 40.6675 29 45.5C29 50.3325 31.5184 54.25 34.625 54.25Z" fill="#9883FF"/>
<path d="M34 50.5C36.0711 50.5 37.75 48.2614 37.75 45.5C37.75 42.7386 36.0711 40.5 34 40.5C31.9289 40.5 30.25 42.7386 30.25 45.5C30.25 48.2614 31.9289 50.5 34 50.5Z" fill="#5F4A9E"/>
<path d="M34 49.25C35.3807 49.25 36.5 47.5711 36.5 45.5C36.5 43.4289 35.3807 41.75 34 41.75C32.6193 41.75 31.5 43.4289 31.5 45.5C31.5 47.5711 32.6193 49.25 34 49.25Z" fill="#39285E"/>
<path d="M32.75 45.5C32.6845 44.7811 32.8262 44.0585 33.1585 43.4176C33.4908 42.7767 33.9997 42.2445 34.625 41.8837C34.4269 41.8003 34.2149 41.7549 34 41.75C32.625 41.75 31.5 43.425 31.5 45.5C31.5 47.575 32.625 49.25 34 49.25C34.2149 49.2451 34.4269 49.1997 34.625 49.1163C33.9997 48.7555 33.4908 48.2233 33.1585 47.5824C32.8262 46.9415 32.6845 46.2189 32.75 45.5Z" fill="#261647"/>
<path d="M37.5 36.0088C37.5133 36.0987 37.5394 36.1863 37.5775 36.2688C37.8913 36.9638 38.835 37.3738 39.3775 37.8675C40.8785 39.2263 41.9401 41.0021 42.4263 42.9675C42.4439 43.1844 42.5064 43.3952 42.6097 43.5867C42.7129 43.7781 42.8548 43.9461 43.0263 44.08C43.2238 44.1628 43.443 44.1786 43.6505 44.1252C43.8579 44.0717 44.0421 43.9518 44.175 43.7838C44.4296 43.442 44.5957 43.0427 44.6588 42.6213C45.0973 41.0505 45.1007 39.3901 44.6688 37.8175C44.4024 37.0638 43.9843 36.3726 43.4404 35.7868C42.8965 35.2009 42.2382 34.7328 41.5063 34.4113C41.0375 34.2106 40.5245 34.1356 40.0179 34.1937C39.5113 34.2517 39.0287 34.4409 38.6175 34.7425C38.1063 35.0613 37.4263 35.4075 37.5 36.0088Z" fill="#9883FF"/>
<path d="M55.25 24.1325C55.6475 24.2125 55.875 24.25 55.875 24.25L55.9088 24.2288C56.1213 23.9713 56.3512 23.7287 56.5825 23.4875C57.4802 21.8453 57.8856 19.9791 57.75 18.1125C57.75 18.1125 57.75 4.8125 44.625 1.75C43.5697 4.57592 42.9787 7.554 42.875 10.5688C46.2475 10.9051 49.3767 12.4761 51.661 14.9799C53.9453 17.4836 55.2236 20.7434 55.25 24.1325Z" fill="#4E8C00"/>
<path d="M66.5 19.25C70.0678 19.2479 73.4955 20.6382 76.0538 23.125C76.9633 22.3274 77.6954 21.348 78.2029 20.2499C78.7103 19.1518 78.9819 17.9595 79 16.75C79 6.75 76.5 1.75 76.5 1.75C72.3105 7.22853 68.6681 13.1045 65.625 19.2938C65.915 19.2763 66.205 19.25 66.5 19.25Z" fill="#63B300"/>
<path d="M76.5 1.75C60.3175 5.2175 59.1 19.3638 59.0087 21.4763C60.9885 20.1893 63.268 19.4374 65.625 19.2938C68.668 13.1045 72.3104 7.22853 76.5 1.75Z" fill="#4E8C00"/>
<path d="M68.2188 14.375C67.3438 15.9225 66.4688 17.5662 65.625 19.3C65.915 19.2825 66.205 19.2562 66.5 19.2562C70.0678 19.2542 73.4955 20.6444 76.0538 23.1312C76.8491 22.3832 77.52 21.5131 78.0413 20.5537C76.9541 18.8695 75.5114 17.4436 73.8145 16.3762C72.1176 15.3088 70.2077 14.6258 68.2188 14.375Z" fill="#4E8C00"/>
<path d="M65.625 19.2938C66.475 17.56 67.35 15.9188 68.2187 14.3688C67.6488 14.2937 67.0748 14.2541 66.5 14.25C64.2717 14.2489 62.0768 14.7921 60.1062 15.8325C59.492 17.6568 59.1229 19.5547 59.0087 21.4763C60.9885 20.1893 63.268 19.4374 65.625 19.2938Z" fill="#3F7000"/>
<path d="M43.5 5.76501C43.192 7.35171 42.9833 8.95608 42.875 10.5688C46.2475 10.9051 49.3767 12.4761 51.661 14.9799C53.9453 17.4836 55.2236 20.7434 55.25 24.1325C55.6475 24.2125 55.875 24.25 55.875 24.25L55.9088 24.2288C56.1213 23.9713 56.3512 23.7288 56.5825 23.4875C57.4802 21.8453 57.8856 19.9792 57.75 18.1125C57.6944 16.5801 57.4466 15.0607 57.0125 13.59C53.703 9.31723 48.8532 6.50874 43.5 5.76501Z" fill="#3F7000"/>
<path d="M76.0283 27.5516C76.8338 26.7462 76.5777 25.1842 75.4564 24.0629C74.3351 22.9416 72.7732 22.6856 71.9677 23.4911C71.1623 24.2965 71.4183 25.8585 72.5396 26.9797C73.6609 28.101 75.2229 28.3571 76.0283 27.5516Z" fill="#F6FAFD"/>
<path d="M41.0195 40.0404C41.825 39.2349 41.569 37.673 40.4477 36.5517C39.3264 35.4304 37.7644 35.1744 36.959 35.9798C36.1535 36.7853 36.4096 38.3472 37.5309 39.4685C38.6522 40.5898 40.2141 40.8458 41.0195 40.0404Z" fill="#F6FAFD"/>
<path d="M59.7746 35.0466C60.58 34.2412 60.324 32.6792 59.2027 31.5579C58.0814 30.4366 56.5194 30.1806 55.714 30.9861C54.9085 31.7915 55.1646 33.3534 56.2859 34.4747C57.4072 35.596 58.9691 35.8521 59.7746 35.0466Z" fill="#C4B0FF"/>
<path d="M75.0112 31.5359C75.4139 31.1332 75.2861 30.3524 74.7257 29.792C74.1653 29.2316 73.3845 29.1038 72.9818 29.5065C72.5791 29.9092 72.7069 30.69 73.2673 31.2504C73.8277 31.8108 74.6085 31.9386 75.0112 31.5359Z" fill="#F6FAFD"/>
<path d="M50.0112 20.276C50.4139 19.8733 50.2861 19.0925 49.7257 18.5321C49.1653 17.9717 48.3845 17.8439 47.9818 18.2466C47.5791 18.6494 47.7069 19.4301 48.2673 19.9905C48.8277 20.5509 49.6085 20.6788 50.0112 20.276Z" fill="#F6FAFD"/>
<path d="M49.1874 16.6437C49.389 16.4421 49.3253 16.0515 49.0451 15.7713C48.7649 15.4911 48.3743 15.4274 48.1727 15.629C47.9711 15.8306 48.0348 16.2212 48.315 16.5014C48.5952 16.7816 48.9858 16.8453 49.1874 16.6437Z" fill="#F6FAFD"/>
<path d="M81.25 30.2737L78.7912 30.7262C78.9291 31.4763 78.9989 32.2373 79 33C79.0023 35.003 78.5232 36.9772 77.6031 38.7564C76.683 40.5356 75.3488 42.0676 73.7128 43.2234C72.0769 44.3792 70.1872 45.125 68.2028 45.3978C66.2185 45.6707 64.1976 45.4627 62.3104 44.7913C60.4233 44.12 58.7251 43.005 57.3589 41.5402C55.9927 40.0754 54.9985 38.3037 54.4601 36.3744C53.9216 34.4451 53.8547 32.4147 54.265 30.4541C54.6753 28.4935 55.5507 26.6603 56.8175 25.1087C57.0985 24.8704 57.3457 24.5949 57.5525 24.29C59.009 22.7892 60.8192 21.6783 62.8169 21.0593C64.8146 20.4403 66.9357 20.333 68.9857 20.7472C71.0356 21.1614 72.9487 22.0839 74.5492 23.43C76.1498 24.7761 77.3867 26.5027 78.1462 28.4512L80.4762 27.5412C79.8419 25.9224 78.9332 24.425 77.79 23.115C79.367 21.3694 80.2431 19.1024 80.25 16.75C80.25 6.57122 77.725 1.40622 77.625 1.19122C77.5008 0.94175 77.2968 0.740935 77.0454 0.620676C76.794 0.500417 76.5097 0.467611 76.2375 0.527469C64.8312 2.97247 60.4625 10.5637 58.7887 15.9675C58.1462 11.8487 55.5387 3.01622 44.9137 0.532469C44.6329 0.466718 44.3379 0.500125 44.0789 0.627023C43.8199 0.753921 43.6127 0.966502 43.4925 1.22872C42.5135 3.80488 41.9237 6.51251 41.7425 9.26247C41.6637 9.26247 41.5862 9.24997 41.5075 9.24997C38.7607 9.24902 36.0664 10.0023 33.7185 11.4276C31.3705 12.853 29.4589 14.8957 28.1923 17.333C26.9257 19.7703 26.3526 22.5086 26.5356 25.2492C26.7186 27.9899 27.6506 30.6277 29.23 32.875L31.2725 31.435C30.1431 29.8277 29.4084 27.9769 29.128 26.0327C28.8476 24.0885 29.0293 22.1055 29.6585 20.2446C30.2877 18.3838 31.3466 16.6974 32.7493 15.3222C34.152 13.947 35.8591 12.9218 37.7321 12.3297C39.6051 11.7376 41.5913 11.5952 43.5296 11.9142C45.4678 12.2331 47.3037 13.0044 48.8882 14.1654C50.4727 15.3265 51.7613 16.8446 52.6494 18.5967C53.5376 20.3488 54.0003 22.2856 54 24.25C54 24.4237 53.9837 24.5925 53.9762 24.7637C52.3595 27.2062 51.4983 30.0709 51.5 33C51.5 33.4787 51.5275 33.95 51.5712 34.4162C49.0248 32.1123 45.7641 30.7533 42.3351 30.567C38.9062 30.3807 35.5174 31.3783 32.7363 33.3928C29.9553 35.4072 27.9509 38.3162 27.059 41.6323C26.1671 44.9485 26.4418 48.4704 27.8371 51.6081C29.2324 54.7459 31.6636 57.3088 34.7233 58.8677C37.7831 60.4266 41.2856 60.8868 44.6442 60.171C48.0027 59.4553 51.0134 57.6072 53.1717 54.9363C55.3301 52.2654 56.5051 48.934 56.5 45.5C56.5 45.0212 56.4725 44.55 56.4287 44.0837C58.5746 46.0434 61.2444 47.3363 64.1124 47.8048C66.9805 48.2733 69.9228 47.8971 72.5807 46.722C75.2387 45.547 77.4972 43.6239 79.081 41.1874C80.6647 38.7508 81.5052 35.906 81.5 33C81.4995 32.0855 81.4158 31.173 81.25 30.2737ZM77.75 16.75C77.7455 18.4512 77.1201 20.0923 75.9912 21.365C73.6185 19.4273 70.7065 18.2676 67.6512 18.0437C70.1332 13.271 72.9656 8.68889 76.125 4.33497C77.2769 8.37033 77.8245 12.5541 77.75 16.75ZM73.2987 3.96497C70.1253 8.45873 67.2924 13.1836 64.8237 18.1C63.3349 18.2663 61.8797 18.6565 60.5075 19.2575C61.0437 15.7848 62.5186 12.5248 64.773 9.82953C67.0274 7.13429 69.9755 5.10639 73.2987 3.96497ZM44.2125 9.50872C44.3934 7.38677 44.7939 5.2893 45.4075 3.24997C56.325 6.48122 56.5 17.625 56.5 18.1137C56.517 19.1461 56.4104 20.1767 56.1825 21.1837C55.5677 18.2711 54.1019 15.6065 51.9709 13.528C49.8398 11.4495 47.1396 10.0506 44.2125 9.50872ZM41.5 58C39.0277 58 36.611 57.2669 34.5554 55.8933C32.4998 54.5198 30.8976 52.5676 29.9515 50.2835C29.0054 47.9994 28.7579 45.4861 29.2402 43.0613C29.7225 40.6366 30.913 38.4093 32.6612 36.6611C34.4093 34.913 36.6366 33.7225 39.0614 33.2402C41.4861 32.7578 43.9995 33.0054 46.2835 33.9515C48.5676 34.8976 50.5198 36.4997 51.8934 38.5553C53.2669 40.611 54 43.0277 54 45.5C53.9964 48.8141 52.6782 51.9914 50.3348 54.3348C47.9914 56.6782 44.8141 57.9963 41.5 58Z" fill="#001A1F"/>
<path d="M34 40.5C31.8963 40.5 30.25 42.6962 30.25 45.5C30.25 48.3038 31.8963 50.5 34 50.5C36.1037 50.5 37.75 48.3038 37.75 45.5C37.75 42.6962 36.1037 40.5 34 40.5ZM34 48C33.49 48 32.75 47.0262 32.75 45.5C32.75 43.9738 33.49 43 34 43C34.51 43 35.25 43.9738 35.25 45.5C35.25 47.0262 34.51 48 34 48Z" fill="#001A1F"/>
<path d="M46.5 18C46.5 15.8963 44.3038 14.25 41.5 14.25C38.6962 14.25 36.5 15.8963 36.5 18C36.5 20.1037 38.6962 21.75 41.5 21.75C44.3038 21.75 46.5 20.1037 46.5 18ZM39 18C39 17.49 39.9738 16.75 41.5 16.75C43.0262 16.75 44 17.49 44 18C44 18.51 43.0262 19.25 41.5 19.25C39.9738 19.25 39 18.51 39 18Z" fill="#001A1F"/>
<path d="M61.5 26.75C61.5 28.8537 63.6962 30.5 66.5 30.5C69.3038 30.5 71.5 28.8537 71.5 26.75C71.5 24.6463 69.3038 23 66.5 23C63.6962 23 61.5 24.6463 61.5 26.75ZM69 26.75C69 27.26 68.0262 28 66.5 28C64.9738 28 64 27.26 64 26.75C64 26.24 64.9738 25.5 66.5 25.5C68.0262 25.5 69 26.24 69 26.75Z" fill="#001A1F"/>
</g>
<path d="M9.35648 100.5V86.3H14.0765C15.8765 86.3 17.2565 86.6333 18.2165 87.3C19.1898 87.9533 19.6765 88.9133 19.6765 90.18C19.6765 90.86 19.5098 91.4733 19.1765 92.02C18.8432 92.5667 18.3698 92.9933 17.7565 93.3C18.4098 93.5533 18.9298 93.96 19.3165 94.52C19.7032 95.0667 19.8965 95.7067 19.8965 96.44C19.8965 97.68 19.4365 98.6667 18.5165 99.4C17.5965 100.133 16.3365 100.5 14.7365 100.5H9.35648ZM14.1165 88.42H11.8965V92.28H14.0765C15.0898 92.28 15.8432 92.1267 16.3365 91.82C16.8298 91.5 17.0765 90.9933 17.0765 90.3C17.0765 89.66 16.8365 89.1867 16.3565 88.88C15.8898 88.5733 15.1432 88.42 14.1165 88.42ZM11.8965 98.38H14.6765C15.4898 98.38 16.1298 98.22 16.5965 97.9C17.0765 97.58 17.3165 97.0733 17.3165 96.38C17.3165 95.0867 16.4165 94.44 14.6165 94.44H11.8965V98.38ZM24.7727 100.68C23.8127 100.68 23.0861 100.42 22.5927 99.9C22.0994 99.38 21.8527 98.64 21.8527 97.68V85.7H24.2927V97.48C24.2927 98.2 24.6261 98.56 25.2927 98.56C25.6261 98.56 25.9194 98.48 26.1727 98.32L26.7727 100.1C26.5594 100.26 26.2727 100.393 25.9127 100.5C25.5527 100.62 25.1727 100.68 24.7727 100.68ZM30.8149 100.68C29.6949 100.68 28.8483 100.3 28.2749 99.54C27.7149 98.78 27.4416 97.7267 27.4549 96.38L27.4949 90.4H29.9349L29.8949 96.16C29.8816 96.8533 30.0016 97.4 30.2549 97.8C30.5083 98.2 30.9083 98.4 31.4549 98.4C31.8816 98.4 32.2749 98.2733 32.6349 98.02C33.0083 97.7667 33.3283 97.34 33.5949 96.74C33.8616 96.1267 34.0683 95.3067 34.2149 94.28C34.3749 93.24 34.4549 91.9467 34.4549 90.4H36.8149V100.5H34.3549L34.4949 98.2C34.0949 99.0133 33.5749 99.6333 32.9349 100.06C32.3083 100.473 31.6016 100.68 30.8149 100.68ZM44.2313 100.68C43.138 100.68 42.1913 100.48 41.3913 100.08C40.6047 99.6667 39.998 99.08 39.5713 98.32C39.1447 97.56 38.9313 96.6533 38.9313 95.6C38.9313 94.5467 39.1513 93.62 39.5913 92.82C40.0313 92.0067 40.6247 91.3733 41.3713 90.92C42.1313 90.4667 42.9913 90.24 43.9513 90.24C45.5113 90.24 46.658 90.7733 47.3913 91.84C48.138 92.8933 48.398 94.3533 48.1713 96.22H41.4113C41.4647 96.9267 41.7513 97.4933 42.2713 97.92C42.7913 98.3467 43.5047 98.56 44.4113 98.56C44.838 98.56 45.2647 98.4667 45.6913 98.28C46.1313 98.0933 46.5047 97.8067 46.8113 97.42L48.2313 98.86C47.778 99.4333 47.2247 99.88 46.5713 100.2C45.9313 100.52 45.1513 100.68 44.2313 100.68ZM43.9913 92.08C43.3113 92.08 42.7513 92.2933 42.3113 92.72C41.8713 93.1467 41.5913 93.72 41.4713 94.44H46.0713C46.098 93.6133 45.918 93.0133 45.5313 92.64C45.1447 92.2667 44.6313 92.08 43.9913 92.08ZM50.2707 100.5V85.7H52.7107V90.4L52.6307 92.24C52.9907 91.6 53.4574 91.1067 54.0307 90.76C54.6174 90.4133 55.2907 90.24 56.0507 90.24C56.944 90.24 57.6974 90.4467 58.3107 90.86C58.924 91.2733 59.3907 91.84 59.7107 92.56C60.0307 93.28 60.1907 94.1 60.1907 95.02C60.1907 96.14 59.9707 97.1267 59.5307 97.98C59.0907 98.8333 58.484 99.5 57.7107 99.98C56.9507 100.447 56.0907 100.68 55.1307 100.68C54.4774 100.68 53.904 100.547 53.4107 100.28C52.9174 100 52.544 99.6333 52.2907 99.18L52.0507 100.5H50.2707ZM54.9307 98.54C55.7707 98.54 56.4374 98.22 56.9307 97.58C57.424 96.94 57.6707 96.1133 57.6707 95.1C57.6707 94.2467 57.484 93.5867 57.1107 93.12C56.7374 92.64 56.224 92.4 55.5707 92.4C55.024 92.4 54.5374 92.5533 54.1107 92.86C53.684 93.1533 53.344 93.5733 53.0907 94.12C52.8374 94.6533 52.7107 95.2733 52.7107 95.98C52.7107 96.7667 52.9107 97.3933 53.3107 97.86C53.7107 98.3133 54.2507 98.54 54.9307 98.54ZM67.122 100.68C66.0286 100.68 65.082 100.48 64.282 100.08C63.4953 99.6667 62.8886 99.08 62.462 98.32C62.0353 97.56 61.822 96.6533 61.822 95.6C61.822 94.5467 62.042 93.62 62.482 92.82C62.922 92.0067 63.5153 91.3733 64.262 90.92C65.022 90.4667 65.882 90.24 66.842 90.24C68.402 90.24 69.5486 90.7733 70.282 91.84C71.0286 92.8933 71.2886 94.3533 71.062 96.22H64.302C64.3553 96.9267 64.642 97.4933 65.162 97.92C65.682 98.3467 66.3953 98.56 67.302 98.56C67.7286 98.56 68.1553 98.4667 68.582 98.28C69.022 98.0933 69.3953 97.8067 69.702 97.42L71.122 98.86C70.6686 99.4333 70.1153 99.88 69.462 100.2C68.822 100.52 68.042 100.68 67.122 100.68ZM66.882 92.08C66.202 92.08 65.642 92.2933 65.202 92.72C64.762 93.1467 64.482 93.72 64.362 94.44H68.962C68.9886 93.6133 68.8086 93.0133 68.422 92.64C68.0353 92.2667 67.522 92.08 66.882 92.08ZM79.6413 92.76C79.3747 92.6667 79.0347 92.62 78.6213 92.62C77.9013 92.62 77.3213 92.8867 76.8813 93.42C76.4413 93.94 76.1147 94.78 75.9013 95.94C75.7013 97.0867 75.6013 98.6067 75.6013 100.5H73.1813V93.98L73.1613 90.4H75.6013L75.4813 93.22C75.828 92.14 76.308 91.3733 76.9213 90.92C77.548 90.4667 78.2147 90.24 78.9213 90.24C79.1347 90.24 79.3347 90.2533 79.5213 90.28C79.708 90.3067 79.8813 90.3467 80.0413 90.4L79.6413 92.76ZM87.8054 92.76C87.5387 92.6667 87.1987 92.62 86.7854 92.62C86.0654 92.62 85.4854 92.8867 85.0454 93.42C84.6054 93.94 84.2787 94.78 84.0654 95.94C83.8654 97.0867 83.7654 98.6067 83.7654 100.5H81.3454V93.98L81.3254 90.4H83.7654L83.6454 93.22C83.9921 92.14 84.4721 91.3733 85.0854 90.92C85.7121 90.4667 86.3787 90.24 87.0854 90.24C87.2987 90.24 87.4987 90.2533 87.6854 90.28C87.8721 90.3067 88.0454 90.3467 88.2054 90.4L87.8054 92.76ZM93.0295 104.7C92.4295 104.7 91.7895 104.64 91.1095 104.52C90.4428 104.4 89.8895 104.2 89.4495 103.92L90.0495 101.8C90.5028 102.027 90.9828 102.207 91.4895 102.34C91.9961 102.473 92.5495 102.54 93.1495 102.54C94.3228 102.54 95.1561 102.26 95.6495 101.7C96.1428 101.153 96.4161 100.273 96.4695 99.06L96.5495 97.74C96.1495 98.5933 95.6161 99.2467 94.9495 99.7C94.2961 100.14 93.5628 100.36 92.7495 100.36C91.6161 100.36 90.7628 99.98 90.1895 99.22C89.6161 98.46 89.3361 97.4067 89.3495 96.06L89.3895 90.4H91.8295L91.7895 95.86C91.7895 96.5533 91.9095 97.1 92.1495 97.5C92.4028 97.8867 92.8095 98.08 93.3695 98.08C93.9828 98.08 94.5161 97.8467 94.9695 97.38C95.4228 96.9 95.7761 96.1067 96.0295 95C96.2961 93.88 96.4361 92.3467 96.4495 90.4H98.8095V98.76C98.8095 100.787 98.3028 102.28 97.2895 103.24C96.2761 104.213 94.8561 104.7 93.0295 104.7Z" fill="white"/>
<defs>
<clipPath id="clip0_7_1002">
<rect width="60" height="60" fill="white" transform="translate(24 0.5)"/>
</clipPath>
</defs>
</svg>
