<svg width="108" height="106" viewBox="0 0 108 106" fill="none" xmlns="http://www.w3.org/2000/svg">
<g clip-path="url(#clip0_7_1189)">
<mask id="mask0_7_1189" style="mask-type:luminance" maskUnits="userSpaceOnUse" x="24" y="0" width="60" height="61">
<path d="M24 0.500004H84V60.5H24V0.500004Z" fill="white"/>
</mask>
<g mask="url(#mask0_7_1189)">
<path fill-rule="evenodd" clip-rule="evenodd" d="M51.2062 57.6979C51.5412 56.0472 53.2392 51.2676 61.6604 51.4681C61.6604 51.4681 62.6827 42.2845 68.104 39.9328C67.8523 39.2236 67.7147 38.46 67.7147 37.6643C67.7147 34.171 70.3561 31.2948 73.7505 30.9239C73.9952 30.8972 74.2438 30.8834 74.4955 30.8834C75.7775 30.8834 76.9762 31.2391 77.9987 31.8573C79.9632 33.0449 81.2764 35.2011 81.2764 37.6643C81.2764 41.3349 78.3596 44.3239 74.7175 44.4411C73.5158 53.8514 65.845 62.4075 51.1259 58.2488C51.1259 58.2488 51.1366 58.0409 51.2062 57.6979Z" fill="#73CA5B"/>
<path fill-rule="evenodd" clip-rule="evenodd" d="M42.4292 43.7744C49.4988 49.1751 51.1259 58.2489 51.1259 58.2489C38.4866 58.2489 28.2405 47.6233 28.2405 34.516C28.2405 31.2985 28.8592 28.2312 29.9778 25.4332C29.9453 25.6754 28.4739 37.0466 38.654 41.5391C40.0585 42.1588 41.3118 42.9208 42.4292 43.7744Z" fill="#A6F074"/>
<path fill-rule="evenodd" clip-rule="evenodd" d="M40.107 33.3052C44.4661 35.727 42.4291 43.7743 42.4291 43.7743C41.3117 42.9207 40.0584 42.1587 38.654 41.5391C28.4738 37.0466 29.9452 25.6753 29.9777 25.4332L29.9766 25.4325C24.014 21.4249 27.3835 16.3771 31.0731 16.6332L31.073 16.6343C32.1854 16.7114 33.3268 17.2698 34.2503 18.4848L34.251 18.4855L34.2517 18.4862C36.2804 20.4905 36.2323 23.8605 36.2323 23.8605C40.2891 26.5152 40.107 33.3052 40.107 33.3052Z" fill="#73CA5B"/>
<path fill-rule="evenodd" clip-rule="evenodd" d="M73.7467 30.898C72.1559 20.1125 63.5642 11.7168 52.9323 10.8559C52.9323 10.8559 55.5166 6.37113 62.2183 8.13445L62.2194 8.13328C63.6711 8.51554 65.3162 9.19102 67.1699 10.2688C67.1699 10.2688 72.7399 7.84711 74.9194 13.7803C82.061 14.4013 82.9696 22.0767 78.5521 26.4943C78.5521 26.4943 79.8671 28.5019 77.9987 31.8573C76.9763 31.239 75.7775 30.8834 74.4956 30.8834C74.2437 30.8834 73.9952 30.8975 73.7506 30.9244C73.7492 30.9155 73.748 30.9067 73.7467 30.898Z" fill="#A6F074"/>
<path fill-rule="evenodd" clip-rule="evenodd" d="M73.7467 30.898C73.748 30.9067 73.7492 30.9155 73.7505 30.9239C70.356 31.2948 67.7146 34.1711 67.7146 37.6642C67.7146 38.4599 67.8522 39.2235 68.104 39.9328C62.6826 42.2844 61.6603 51.4681 61.6603 51.4681C53.2391 51.2676 51.5412 56.0472 51.2062 57.6979C51.1367 58.0409 51.1259 58.2489 51.1259 58.2489C51.1259 58.2489 49.4987 49.1751 42.4292 43.7744C42.4292 43.7744 44.4662 35.7271 40.107 33.3053C40.107 33.3053 40.2891 26.5152 36.2323 23.8606C36.2323 23.8606 36.2803 20.4906 34.2518 18.4862C38.4353 13.7521 44.4457 10.783 51.1259 10.783C51.7339 10.783 52.3361 10.8086 52.9321 10.8573C63.5638 11.7184 72.1559 20.1127 73.7467 30.898Z" fill="#DCFFB6"/>
<path fill-rule="evenodd" clip-rule="evenodd" d="M62.2193 8.13328C62.2193 8.13328 60.6312 1.67156 53.1239 1.67156C45.6167 1.67156 44.648 6.99937 44.648 6.99937C44.648 6.99937 32.2552 5.68277 31.0732 16.6332L31.0731 16.6343C32.1855 16.7114 33.3268 17.2698 34.2504 18.4848L34.2518 18.4862C38.4353 13.7521 44.4457 10.7829 51.1259 10.7829C51.7339 10.7829 52.3361 10.8086 52.9321 10.8573L52.9322 10.8558C52.9322 10.8558 55.5166 6.37113 62.2183 8.13445L62.2193 8.13328Z" fill="#73CA5B"/>
<path d="M52.9322 10.8559C52.9322 10.8559 56.7564 4.21454 67.1699 10.2688C67.1699 10.2688 72.7399 7.84711 74.9194 13.7803C82.061 14.4013 82.9696 22.0767 78.5521 26.4943C78.5521 26.4943 79.8671 28.5019 77.9987 31.8573L77.9985 31.8574C76.9762 31.2393 75.7775 30.8834 74.4956 30.8834C74.2437 30.8834 73.9952 30.8975 73.7506 30.9244C72.1699 20.1263 63.5725 11.7191 52.9321 10.8574L52.9322 10.8559Z" stroke="black" stroke-width="2.46094" stroke-miterlimit="2.613" stroke-linecap="round" stroke-linejoin="round"/>
<path d="M33.0993 49.1386C37.2883 54.6846 43.8058 58.2488 51.1259 58.2488C51.1259 58.2488 51.4892 51.226 61.6605 51.4681C61.6605 51.4681 62.6826 42.2844 68.104 39.9327C67.8523 39.2235 67.7147 38.4599 67.7147 37.6642C67.7147 34.1711 70.3563 31.2953 73.7507 30.9243C72.0817 19.5245 62.524 10.6355 50.835 10.7849M31.1997 46.1967C31.2094 46.2144 31.2192 46.2321 31.2288 46.2498M29.9778 25.4332C28.8592 28.2312 28.2405 31.2985 28.2405 34.516C28.2405 37.0201 28.6147 39.4339 29.3078 41.6999M42.7395 12.4273C39.4769 13.7607 36.5806 15.8496 34.2511 18.4855M45.9045 11.4035C45.8992 11.4048 45.894 11.4062 45.8887 11.4074" stroke="black" stroke-width="2.46094" stroke-miterlimit="2.613" stroke-linecap="round" stroke-linejoin="round"/>
<path d="M58.6939 20.8033C58.6939 20.8033 45.1713 28.2371 51.2061 57.6979" stroke="black" stroke-width="2.46094" stroke-miterlimit="2.613" stroke-linecap="round" stroke-linejoin="round"/>
<path d="M51.1258 58.2488C51.1258 58.2488 48.9437 46.0799 38.6539 41.539C28.4739 37.0465 29.9453 25.6752 29.9777 25.4332" stroke="black" stroke-width="2.46094" stroke-miterlimit="2.613" stroke-linecap="round" stroke-linejoin="round"/>
<path d="M74.4955 30.8833C70.7505 30.8833 67.7147 33.9192 67.7147 37.6642C67.7147 38.4599 67.8523 39.2235 68.104 39.9328C62.6825 42.2844 61.6604 51.468 61.6604 51.468C51.4891 51.2259 51.1259 58.2488 51.1259 58.2488C65.845 62.4075 73.5158 53.8513 74.7175 44.441C78.3596 44.3238 81.2763 41.3349 81.2763 37.6642C81.2763 33.9192 78.2405 30.8833 74.4955 30.8833Z" stroke="black" stroke-width="2.46094" stroke-miterlimit="2.613" stroke-linecap="round" stroke-linejoin="round"/>
<path d="M40.107 33.3052C44.4662 35.727 42.4291 43.7743 42.4291 43.7743C41.3239 42.93 40.0855 42.1753 38.6996 41.5593L38.654 41.5391C28.4738 37.0466 29.9452 25.6753 29.9777 25.4332C29.9777 25.4332 29.9775 25.4329 29.9767 25.4325C22.2165 20.2168 30.2631 13.2392 34.2504 18.4848C36.2805 20.4891 36.2324 23.8605 36.2324 23.8605C40.2892 26.5152 40.107 33.3052 40.107 33.3052Z" stroke="black" stroke-width="2.46094" stroke-miterlimit="2.613" stroke-linecap="round" stroke-linejoin="round"/>
<path d="M62.2183 8.13445L62.2193 8.13328C62.2193 8.13328 60.6312 1.67168 53.1239 1.67168C45.6167 1.67168 44.6479 6.99937 44.6479 6.99937C44.6479 6.99937 32.2551 5.68277 31.0732 16.6332L31.0731 16.6343C32.1855 16.7114 33.3268 17.2698 34.2504 18.4848L34.2518 18.4862" stroke="black" stroke-width="2.46094" stroke-miterlimit="2.613" stroke-linecap="round" stroke-linejoin="round"/>
<path d="M52.6992 28.1772C55.1209 25.7858 61.165 24.5837 64.9185 27.6411" stroke="black" stroke-width="2.46094" stroke-miterlimit="2.613" stroke-linecap="round" stroke-linejoin="round"/>
<path d="M50.6175 34.3267C50.6175 34.3267 47.7299 24.7794 43.0076 23.6292" stroke="black" stroke-width="2.46094" stroke-miterlimit="2.613" stroke-linecap="round" stroke-linejoin="round"/>
<path d="M55.913 39.1728C53.4553 39.1688 50.3761 40.1186 49.6581 43.1382M58.9484 39.9313C58.9346 39.9181 58.9203 39.9052 58.9052 39.8924" stroke="black" stroke-width="2.46094" stroke-miterlimit="2.613" stroke-linecap="round" stroke-linejoin="round"/>
<path d="M44.6479 6.9995L45.8788 7.97766" stroke="black" stroke-width="2.46094" stroke-miterlimit="2.613" stroke-linecap="round" stroke-linejoin="round"/>
<path d="M61.6604 51.4681C63.453 51.4506 64.7992 51.8234 65.6543 52.6261" stroke="black" stroke-width="2.46094" stroke-miterlimit="2.613" stroke-linecap="round" stroke-linejoin="round"/>
<path d="M36.2324 23.8606C36.2324 23.8606 35.3981 26.6765 35.7497 30.1042" stroke="black" stroke-width="2.46094" stroke-miterlimit="2.613" stroke-linecap="round" stroke-linejoin="round"/>
<path d="M74.9194 13.7802C74.9194 13.7802 72.5614 13.7454 71.1927 15.0481" stroke="black" stroke-width="2.46094" stroke-miterlimit="2.613" stroke-linecap="round" stroke-linejoin="round"/>
<path d="M74.7174 44.441C74.7174 44.441 74.9303 40.8358 75.4577 39.869" stroke="black" stroke-width="2.46094" stroke-miterlimit="2.613" stroke-linecap="round" stroke-linejoin="round"/>
</g>
</g>
<path d="M25.2832 97.74C24.7232 98.6867 23.9499 99.4133 22.9632 99.92C21.9765 100.427 20.8699 100.68 19.6432 100.68C18.1899 100.68 16.9432 100.4 15.9032 99.84C14.8632 99.28 14.0632 98.48 13.5032 97.44C12.9565 96.3867 12.6832 95.1333 12.6832 93.68C12.6832 92.1733 12.9899 90.8533 13.6032 89.72C14.2165 88.5867 15.0699 87.7 16.1632 87.06C17.2565 86.42 18.5232 86.1 19.9632 86.1C21.1899 86.1 22.2365 86.3333 23.1032 86.8C23.9832 87.2667 24.7165 87.9733 25.3032 88.92L23.3032 90.36C22.9432 89.6933 22.4699 89.2067 21.8832 88.9C21.2965 88.5933 20.6499 88.44 19.9432 88.44C19.0365 88.44 18.2365 88.66 17.5432 89.1C16.8499 89.54 16.3032 90.1533 15.9032 90.94C15.5165 91.7133 15.3232 92.6133 15.3232 93.64C15.3232 95.12 15.7032 96.2733 16.4632 97.1C17.2365 97.9267 18.3099 98.34 19.6832 98.34C20.4432 98.34 21.1432 98.1667 21.7832 97.82C22.4232 97.4733 22.9432 96.9467 23.3432 96.24L25.2832 97.74ZM35.8435 90.44V100.5H33.3635L33.4435 98.74C33.0835 99.3533 32.6102 99.8333 32.0235 100.18C31.4502 100.513 30.7902 100.68 30.0435 100.68C29.1635 100.68 28.4168 100.48 27.8035 100.08C27.1902 99.6667 26.7235 99.1 26.4035 98.38C26.0835 97.66 25.9235 96.8333 25.9235 95.9C25.9235 94.78 26.1435 93.8 26.5835 92.96C27.0235 92.1067 27.6235 91.44 28.3835 90.96C29.1568 90.48 30.0235 90.24 30.9835 90.24C31.6235 90.24 32.1902 90.38 32.6835 90.66C33.1768 90.9267 33.5568 91.2867 33.8235 91.74L34.0635 90.44H35.8435ZM31.1635 92.4C30.3368 92.4 29.6768 92.7133 29.1835 93.34C28.6902 93.9667 28.4435 94.7867 28.4435 95.8C28.4435 96.6667 28.6302 97.34 29.0035 97.82C29.3768 98.3 29.8902 98.54 30.5435 98.54C31.0768 98.54 31.5568 98.3867 31.9835 98.08C32.4235 97.7733 32.7702 97.3467 33.0235 96.8C33.2768 96.2533 33.4035 95.6267 33.4035 94.92C33.4035 94.1333 33.2035 93.52 32.8035 93.08C32.4035 92.6267 31.8568 92.4 31.1635 92.4ZM38.4348 100.5V85.7H40.8748V90.4L40.7948 92.24C41.1548 91.6 41.6214 91.1067 42.1948 90.76C42.7814 90.4133 43.4548 90.24 44.2148 90.24C45.1081 90.24 45.8614 90.4467 46.4748 90.86C47.0881 91.2733 47.5548 91.84 47.8748 92.56C48.1948 93.28 48.3548 94.1 48.3548 95.02C48.3548 96.14 48.1348 97.1267 47.6948 97.98C47.2548 98.8333 46.6481 99.5 45.8748 99.98C45.1148 100.447 44.2548 100.68 43.2948 100.68C42.6414 100.68 42.0681 100.547 41.5748 100.28C41.0814 100 40.7081 99.6333 40.4548 99.18L40.2148 100.5H38.4348ZM43.0948 98.54C43.9348 98.54 44.6014 98.22 45.0948 97.58C45.5881 96.94 45.8348 96.1133 45.8348 95.1C45.8348 94.2467 45.6481 93.5867 45.2748 93.12C44.9014 92.64 44.3881 92.4 43.7348 92.4C43.1881 92.4 42.7014 92.5533 42.2748 92.86C41.8481 93.1533 41.5081 93.5733 41.2548 94.12C41.0014 94.6533 40.8748 95.2733 40.8748 95.98C40.8748 96.7667 41.0748 97.3933 41.4748 97.86C41.8748 98.3133 42.4148 98.54 43.0948 98.54ZM50.466 100.5V85.7H52.906V90.4L52.826 92.24C53.186 91.6 53.6527 91.1067 54.226 90.76C54.8127 90.4133 55.486 90.24 56.246 90.24C57.1393 90.24 57.8927 90.4467 58.506 90.86C59.1193 91.2733 59.586 91.84 59.906 92.56C60.226 93.28 60.386 94.1 60.386 95.02C60.386 96.14 60.166 97.1267 59.726 97.98C59.286 98.8333 58.6793 99.5 57.906 99.98C57.146 100.447 56.286 100.68 55.326 100.68C54.6727 100.68 54.0993 100.547 53.606 100.28C53.1127 100 52.7393 99.6333 52.486 99.18L52.246 100.5H50.466ZM55.126 98.54C55.966 98.54 56.6327 98.22 57.126 97.58C57.6193 96.94 57.866 96.1133 57.866 95.1C57.866 94.2467 57.6793 93.5867 57.306 93.12C56.9327 92.64 56.4193 92.4 55.766 92.4C55.2193 92.4 54.7327 92.5533 54.306 92.86C53.8793 93.1533 53.5393 93.5733 53.286 94.12C53.0327 94.6533 52.906 95.2733 52.906 95.98C52.906 96.7667 53.106 97.3933 53.506 97.86C53.906 98.3133 54.446 98.54 55.126 98.54ZM71.9373 90.44V100.5H69.4573L69.5373 98.74C69.1773 99.3533 68.7039 99.8333 68.1173 100.18C67.5439 100.513 66.8839 100.68 66.1373 100.68C65.2573 100.68 64.5106 100.48 63.8973 100.08C63.2839 99.6667 62.8173 99.1 62.4973 98.38C62.1773 97.66 62.0173 96.8333 62.0173 95.9C62.0173 94.78 62.2373 93.8 62.6773 92.96C63.1173 92.1067 63.7173 91.44 64.4773 90.96C65.2506 90.48 66.1173 90.24 67.0773 90.24C67.7173 90.24 68.2839 90.38 68.7773 90.66C69.2706 90.9267 69.6506 91.2867 69.9173 91.74L70.1573 90.44H71.9373ZM67.2573 92.4C66.4306 92.4 65.7706 92.7133 65.2773 93.34C64.7839 93.9667 64.5373 94.7867 64.5373 95.8C64.5373 96.6667 64.7239 97.34 65.0973 97.82C65.4706 98.3 65.9839 98.54 66.6373 98.54C67.1706 98.54 67.6506 98.3867 68.0773 98.08C68.5173 97.7733 68.8639 97.3467 69.1173 96.8C69.3706 96.2533 69.4973 95.6267 69.4973 94.92C69.4973 94.1333 69.2973 93.52 68.8973 93.08C68.4973 92.6267 67.9506 92.4 67.2573 92.4ZM78.1685 104.7C77.5818 104.7 76.9485 104.64 76.2685 104.52C75.6018 104.4 75.0485 104.2 74.6085 103.92L75.2085 101.8C75.6485 102.027 76.1218 102.207 76.6285 102.34C77.1485 102.473 77.7018 102.54 78.2885 102.54C79.4752 102.54 80.3152 102.26 80.8085 101.7C81.3018 101.14 81.5752 100.26 81.6285 99.06L81.6685 98.44C81.2952 99.0667 80.8218 99.5467 80.2485 99.88C79.6885 100.2 79.0285 100.36 78.2685 100.36C77.3618 100.36 76.5885 100.167 75.9485 99.78C75.3218 99.3933 74.8485 98.8533 74.5285 98.16C74.2085 97.4667 74.0485 96.6733 74.0485 95.78C74.0485 94.7 74.2618 93.7467 74.6885 92.92C75.1285 92.08 75.7285 91.4267 76.4885 90.96C77.2618 90.48 78.1485 90.24 79.1485 90.24C79.8152 90.24 80.3952 90.38 80.8885 90.66C81.3818 90.9267 81.7618 91.2867 82.0285 91.74L82.2685 90.44H84.0485V98.76C84.0485 100.747 83.5285 102.233 82.4885 103.22C81.4485 104.207 80.0085 104.7 78.1685 104.7ZM79.3285 92.4C78.4885 92.4 77.8152 92.7 77.3085 93.3C76.8152 93.9 76.5685 94.6733 76.5685 95.62C76.5685 96.4467 76.7618 97.0867 77.1485 97.54C77.5352 97.9933 78.0618 98.22 78.7285 98.22C79.2752 98.22 79.7618 98.0733 80.1885 97.78C80.6285 97.4733 80.9752 97.06 81.2285 96.54C81.4818 96.02 81.6085 95.4333 81.6085 94.78C81.6085 94.0333 81.4018 93.4533 80.9885 93.04C80.5752 92.6133 80.0218 92.4 79.3285 92.4ZM91.4774 100.68C90.3841 100.68 89.4374 100.48 88.6374 100.08C87.8508 99.6667 87.2441 99.08 86.8174 98.32C86.3908 97.56 86.1774 96.6533 86.1774 95.6C86.1774 94.5467 86.3974 93.62 86.8374 92.82C87.2774 92.0067 87.8708 91.3733 88.6174 90.92C89.3774 90.4667 90.2374 90.24 91.1974 90.24C92.7574 90.24 93.9041 90.7733 94.6374 91.84C95.3841 92.8933 95.6441 94.3533 95.4174 96.22H88.6574C88.7108 96.9267 88.9974 97.4933 89.5174 97.92C90.0374 98.3467 90.7508 98.56 91.6574 98.56C92.0841 98.56 92.5108 98.4667 92.9374 98.28C93.3774 98.0933 93.7508 97.8067 94.0574 97.42L95.4774 98.86C95.0241 99.4333 94.4708 99.88 93.8174 100.2C93.1774 100.52 92.3974 100.68 91.4774 100.68ZM91.2374 92.08C90.5574 92.08 89.9974 92.2933 89.5574 92.72C89.1174 93.1467 88.8374 93.72 88.7174 94.44H93.3174C93.3441 93.6133 93.1641 93.0133 92.7774 92.64C92.3908 92.2667 91.8774 92.08 91.2374 92.08Z" fill="white"/>
<defs>
<clipPath id="clip0_7_1189">
<rect width="60" height="60" fill="white" transform="translate(24 0.5)"/>
</clipPath>
</defs>
</svg>
